<?xml version="1.0" standalone="no"?>
<!DOCTYPE svg PUBLIC "-//W3C//DTD SVG 20010904//EN"
 "http://www.w3.org/TR/2001/REC-SVG-20010904/DTD/svg10.dtd">
<svg version="1.0" xmlns="http://www.w3.org/2000/svg"
 width="512.000000pt" height="512.000000pt" viewBox="0 0 512.000000 512.000000"
 preserveAspectRatio="xMidYMid meet">
<metadata>
Created by potrace 1.14, written by Peter Selinger 2001-2017
</metadata>
<g transform="translate(0.000000,512.000000) scale(0.100000,-0.100000)"
fill="#000000" stroke="none">
<path d="M1820 4974 c-380 -36 -637 -136 -834 -324 -137 -131 -205 -245 -252
-426 -23 -87 -27 -119 -27 -259 0 -180 17 -266 74 -384 39 -79 147 -195 240
-256 123 -83 325 -162 602 -236 84 -22 157 -42 163 -44 9 -2 7 -21 -4 -67 -10
-43 -15 -111 -15 -218 0 -174 18 -263 74 -379 39 -79 147 -195 240 -256 112
-75 305 -153 543 -221 l99 -28 -29 -23 c-74 -59 -221 -119 -364 -149 -118 -24
-430 -30 -577 -10 -142 19 -317 62 -426 105 -192 76 -403 202 -516 307 -32 30
-61 54 -64 54 -6 0 -165 -253 -170 -269 -3 -12 124 -115 228 -184 180 -119
440 -227 665 -277 463 -103 978 -65 1301 95 118 58 171 95 259 183 l75 75 70
-18 c151 -39 367 -115 462 -164 214 -110 310 -245 328 -457 22 -267 -112 -474
-375 -580 -255 -103 -669 -113 -1013 -25 -255 66 -543 215 -706 367 -32 30
-61 54 -64 54 -6 0 -165 -253 -170 -269 -3 -12 124 -115 228 -184 435 -287
1062 -402 1614 -296 189 37 360 103 487 190 81 54 198 180 248 265 89 151 121
301 113 519 -9 231 -61 366 -194 506 -153 160 -363 264 -741 365 l-142 38 7
50 c5 28 8 123 8 211 -1 134 -5 173 -23 238 -61 215 -207 379 -442 497 -82 41
-265 109 -393 145 l-98 28 28 29 c67 71 265 142 468 169 128 17 404 6 523 -20
248 -55 456 -155 606 -292 31 -28 58 -50 60 -48 14 14 156 259 156 268 0 26
-203 167 -339 235 -483 243 -1191 229 -1609 -30 -42 -27 -118 -88 -167 -136
l-91 -87 -99 25 c-479 121 -658 217 -740 396 -36 79 -48 158 -42 278 3 78 11
124 31 180 107 307 412 453 911 437 352 -12 655 -122 869 -318 31 -28 58 -50
60 -48 14 14 156 259 156 268 0 26 -203 167 -339 235 -257 130 -631 198 -931
170z m497 -2070 c181 -56 338 -135 419 -208 121 -110 166 -213 168 -393 0 -61
-2 -114 -6 -118 -7 -7 -166 35 -321 86 -307 100 -440 241 -454 485 -3 50 -3
116 1 148 7 52 9 56 29 51 12 -4 86 -26 164 -51z"/>
</g>
</svg>
